<svg version="1.1" id="Layer_1" xmlns="http://www.w3.org/2000/svg" xmlns:xlink="http://www.w3.org/1999/xlink" x="0px" y="0px"
	 width="100%" viewBox="0 0 1024 1024" enable-background="new 0 0 1024 1024" xml:space="preserve">
<path fill="#000000" opacity="1.000000" stroke="none" 
	d="
M569.000000,1025.000000 
	C380.833344,1025.000000 193.166672,1024.987061 5.500053,1025.093750 
	C1.750725,1025.095947 0.905801,1024.249146 0.906913,1020.500000 
	C1.007246,682.166687 1.007246,343.833344 0.906913,5.500028 
	C0.905801,1.750903 1.750902,0.905800 5.500028,0.906912 
	C343.833344,1.007255 682.166687,1.007255 1020.500000,0.906912 
	C1024.249146,0.905800 1025.094360,1.750902 1025.093262,5.500027 
	C1024.992920,343.833344 1024.992798,682.166687 1025.093140,1020.500000 
	C1025.094238,1024.249146 1024.249390,1025.096802 1020.499939,1025.094116 
	C870.166687,1024.983765 719.833313,1025.000000 569.000000,1025.000000 
z"/>
<path fill="#FCFDFE" opacity="1.000000" stroke="none" 
	d="
M652.714111,178.394272 
	C653.456787,178.141388 653.888489,178.091812 654.643433,177.991577 
	C663.737671,175.614487 672.196289,178.616730 680.758606,179.582855 
	C682.592529,179.789795 684.430054,180.989136 686.070618,182.760101 
	C686.895508,185.241348 685.246521,186.067978 683.904175,186.974319 
	C680.340881,189.380219 677.796875,192.606323 676.142456,196.523529 
	C669.741760,211.678986 663.248474,226.797867 657.376953,242.808914 
	C659.767517,242.041092 661.437317,240.776138 663.287781,239.951691 
	C674.041687,235.160507 684.478577,234.991638 694.558411,241.838074 
	C717.954163,257.728912 741.181458,273.861328 764.326782,290.114471 
	C774.670166,297.377777 785.326538,304.191254 795.601929,311.557861 
	C797.102295,312.633514 798.774292,313.373199 800.772583,314.267395 
	C802.594116,316.000824 804.727112,316.460602 806.787109,317.746429 
	C807.057190,317.969177 807.001831,317.997192 807.015747,317.969452 
	C807.625305,318.891052 808.781067,318.957367 809.826599,319.767395 
	C810.061218,319.967529 810.002441,319.997040 810.016968,319.967529 
	C810.658386,320.808624 811.601379,321.211395 812.790588,321.797058 
	C813.046753,321.965240 812.999329,321.998352 813.016113,321.974670 
	C818.980957,327.327332 824.803223,332.939972 827.832031,340.496307 
	C833.194702,353.875305 834.741699,367.462891 828.264343,381.054077 
	C827.910217,381.797058 827.918274,382.680847 827.263123,383.747986 
	C827.026306,384.078827 826.943848,384.531677 826.871704,384.750214 
	C825.884338,386.104797 824.853760,387.163208 824.203247,388.855011 
	C822.927917,390.363586 821.814026,391.603271 820.399780,392.943848 
	C817.675232,395.342773 817.652039,397.008820 821.075989,398.446869 
	C822.890625,399.208984 824.785217,399.727966 826.829956,400.758759 
	C827.091919,400.971191 827.537354,401.050171 827.751099,401.124237 
	C828.721375,401.911743 829.811218,401.981110 830.855957,402.776001 
	C831.083313,402.975128 831.533936,403.056519 831.748901,403.135376 
	C833.846497,404.639099 835.236145,406.701477 837.817261,407.754181 
	C838.067932,407.961060 838.004700,407.994843 838.021606,407.963196 
	C845.340393,415.161835 851.129333,423.276398 854.053894,433.338348 
	C858.011841,446.955963 855.715149,460.042786 851.206909,472.962555 
	C844.861694,491.146820 839.951660,509.782104 833.859497,528.033936 
	C826.606567,549.763672 820.810364,571.925293 813.602966,593.673706 
	C806.721558,614.438477 800.945679,635.574402 794.391479,656.454651 
	C791.411743,665.947449 788.966370,675.637451 784.699585,684.721558 
	C780.654358,693.333984 774.576782,700.244385 767.311768,706.774902 
	C767.036255,707.061462 766.999756,707.004822 767.028992,707.021484 
	C763.442688,708.692444 763.903931,710.986572 765.691711,713.879395 
	C770.004822,720.858032 772.648743,728.191406 773.288818,736.678650 
	C774.479187,752.461975 768.113098,764.680359 757.710693,775.513550 
	C756.804443,776.457336 755.884644,777.462158 754.791016,778.216309 
	C751.307861,780.617920 751.190735,783.354797 752.787903,787.220581 
	C758.154907,800.211365 758.817871,813.579346 754.812683,827.122070 
	C753.999084,829.873291 752.823792,832.409668 750.903687,834.568481 
	C750.010925,835.572083 749.029358,836.897034 747.675964,836.675232 
	C741.942810,835.735779 736.007996,838.273499 730.418396,835.701416 
	C727.643616,834.424622 724.357849,835.980957 721.555725,833.642212 
	C720.500793,828.467529 723.417358,824.387634 724.106384,819.801453 
	C727.276917,798.699036 711.338684,776.414978 690.468079,772.319946 
	C667.521423,767.817566 642.354919,781.729980 639.458496,811.389832 
	C639.211304,813.921021 639.931274,816.349548 639.873352,819.216553 
	C639.499573,821.066345 638.313354,822.256775 638.146606,823.710876 
	C637.560852,828.819336 634.197571,830.199341 629.769470,830.202271 
	C627.620239,830.203735 625.476929,829.883911 623.664185,831.540771 
	C622.316284,832.772644 621.192017,831.496948 620.094177,830.924377 
	C617.296570,829.465393 614.382446,828.328003 611.035278,827.216675 
	C606.705688,818.464478 607.897400,809.529236 608.713989,800.266113 
	C609.409119,796.898987 608.277344,793.728821 610.077148,790.483521 
	C610.440918,787.072937 608.187134,787.580139 606.478394,787.504028 
	C600.828186,787.252319 595.213684,788.295227 589.616516,788.359131 
	C568.814880,788.596436 547.946960,789.391174 527.221985,788.155212 
	C511.366699,787.209656 495.693695,788.902100 479.929993,788.611877 
	C473.934723,788.501526 468.072174,787.290039 462.071808,787.405884 
	C458.343262,787.477966 457.187683,788.787354 458.575378,792.650879 
	C458.847809,793.766418 458.898895,794.484680 458.987549,795.562256 
	C460.561066,804.961609 460.722992,813.995239 458.717102,823.384521 
	C457.955719,824.851318 457.040833,825.782227 456.770355,827.436401 
	C456.524445,828.538086 456.138214,829.141968 455.182556,829.746277 
	C448.468964,832.464783 442.374420,832.100769 436.639160,828.096008 
	C435.706238,827.444580 434.787292,827.242920 434.242706,828.529053 
	C433.602722,830.040710 433.253784,832.002747 430.994904,831.477478 
	C428.492828,830.895813 428.971283,828.365540 428.154144,826.267456 
	C427.950226,818.970947 429.239716,812.101990 427.647095,805.081421 
	C424.080627,789.359619 410.417267,775.924500 394.627350,772.561218 
	C370.981842,767.524719 344.631409,782.653320 343.359772,813.692505 
	C343.284912,815.520020 343.286041,817.352905 343.440857,819.556091 
	C343.555206,820.422180 343.631866,820.913208 343.799316,821.763794 
	C344.032166,822.846375 344.103088,823.577026 344.121399,824.673706 
	C342.497772,829.733398 336.983368,832.750366 332.562347,831.272644 
	C331.737457,830.997009 330.753723,830.533630 330.287689,831.254700 
	C327.071411,836.231689 322.213776,833.104797 317.799591,833.718628 
	C311.785217,828.161316 311.386505,820.817749 310.782654,813.782654 
	C309.931427,803.865723 311.686127,794.242310 316.399597,785.365967 
	C317.943054,782.459351 317.502625,780.725586 314.911865,778.637268 
	C306.741425,772.051392 300.266571,764.008667 297.250427,753.834351 
	C293.136414,739.956726 295.709534,726.869690 303.485535,714.831848 
	C305.735291,711.348999 305.540100,709.071228 301.289673,707.229858 
	C300.955048,707.032898 301.000244,707.000183 300.984863,707.023621 
	C285.657623,696.141846 280.380249,679.520386 275.509705,662.606628 
	C268.616089,638.667480 262.381592,614.550842 255.908905,590.498718 
	C252.500076,577.831726 248.581482,565.313293 245.112228,552.667969 
	C238.582458,528.867126 231.768997,505.145874 225.170151,481.364441 
	C220.653000,465.085175 216.085022,448.811432 211.164780,432.642273 
	C209.813660,428.202148 208.967789,423.629944 207.297012,419.252869 
	C205.854538,415.473877 203.698395,413.887299 199.507309,413.885925 
	C192.072845,413.883484 184.669205,414.443146 177.197250,412.527283 
	C166.516663,409.788666 158.312210,403.904541 151.221848,395.313843 
	C150.933182,395.036102 150.995544,395.004150 150.979523,395.035339 
	C144.760986,386.336731 141.375702,376.870514 141.513535,365.906982 
	C141.682800,352.442841 150.514664,337.239838 165.125443,332.661713 
	C169.409225,331.669098 173.311172,331.820465 177.617584,332.284302 
	C185.347519,331.047638 189.190857,336.774109 193.647964,340.692200 
	C196.480316,343.182068 198.729568,345.316193 202.823883,345.130157 
	C209.466522,344.828369 216.194305,345.608032 222.771500,344.886322 
	C229.030121,344.199524 235.126358,345.907562 240.461487,347.526550 
	C250.555313,350.589752 259.143768,356.627350 264.307098,367.160126 
	C267.490082,373.653198 269.544067,380.362274 272.022034,387.008209 
	C272.940338,389.471130 273.911072,391.273499 276.420563,388.136993 
	C277.391998,386.922821 278.946259,386.174988 280.554901,385.082092 
	C284.714874,382.158203 282.108398,378.805695 281.378418,375.887512 
	C279.310883,367.622314 279.672302,359.504395 281.355682,351.229279 
	C283.563232,340.377747 288.739807,331.109985 295.727722,322.247314 
	C295.963928,321.934052 295.995544,321.996063 295.964417,321.980499 
	C296.531769,321.480957 297.066620,320.930573 297.778717,320.151794 
	C297.962677,319.930359 297.994629,319.994568 297.962524,319.978638 
	C306.774139,312.346802 316.932373,307.580780 328.433197,305.482483 
	C331.599274,304.904846 334.708344,305.114227 337.841797,305.031281 
	C341.826904,304.925812 345.816864,305.007507 349.804749,305.005371 
	C359.607300,305.000122 359.484406,304.920135 361.082062,295.426025 
	C363.373047,281.811768 370.161316,270.653839 380.707703,261.248413 
	C380.978210,260.952911 381.000000,261.000000 380.976440,260.989105 
	C394.413330,250.100830 410.102905,246.131714 427.023102,246.749039 
	C434.489136,247.021439 440.420532,246.456757 443.652039,238.128357 
	C445.739532,232.748474 450.598877,228.897659 455.690796,225.221359 
	C455.965912,224.936462 455.998047,224.995331 455.967773,224.980865 
	C468.525635,216.647400 482.530548,213.502258 497.429047,213.511978 
	C532.888123,213.535126 568.347778,213.422668 603.805542,213.634155 
	C608.611938,213.662827 611.740967,212.270386 613.744568,208.030731 
	C615.309631,204.718872 617.437134,201.739746 619.708008,198.321808 
	C619.979248,197.956329 620.000000,198.000671 619.977844,197.990326 
	C620.532104,197.476242 621.070251,196.933273 621.784851,196.161942 
	C621.972717,195.945297 621.999268,195.998352 621.972534,195.985504 
	C623.621460,194.602707 624.914856,192.845749 626.758057,191.186310 
	C626.970947,190.942627 626.998596,190.997223 626.970825,190.984406 
	C627.530701,190.479294 628.067383,189.933945 628.785828,189.165146 
	C628.974976,188.949295 629.000000,188.999619 628.974915,188.986908 
	C632.599915,186.500900 636.409607,184.316818 640.765015,182.406265 
	C641.048340,182.204742 641.472534,182.059418 641.692993,182.018982 
	C645.310364,180.542374 648.722778,179.154434 652.714111,178.394272 
z"/>
<path fill="#032A48" opacity="1.000000" stroke="none" 
	d="
M638.619873,820.406128 
	C637.692993,811.276917 638.627991,802.783630 642.415833,794.754517 
	C652.102234,774.222473 677.009583,764.605347 698.120605,773.186462 
	C719.590515,781.913513 730.769287,806.019409 723.414429,827.743286 
	C722.935974,829.156494 722.406128,830.552368 721.860596,832.321960 
	C721.822754,835.415161 720.422852,837.579956 718.799316,840.029968 
	C716.982605,842.369263 714.971130,844.075256 713.235474,846.507446 
	C704.992126,853.338989 696.027832,857.426514 685.224304,857.819153 
	C684.932434,858.057434 684.974731,857.965759 685.022827,857.981018 
	C684.718506,858.280396 684.323853,858.477051 683.549072,858.617676 
	C681.914673,858.562622 680.635498,858.194092 679.024658,858.146362 
	C678.539124,857.998474 678.341003,858.004211 677.865479,857.902771 
	C676.272827,857.180298 674.876038,857.619446 673.170837,857.469177 
	C662.944336,856.231689 655.456665,850.622559 648.132324,843.960327 
	C646.225769,842.254883 645.124390,840.351379 643.539917,838.369873 
	C642.787354,836.957275 642.466370,835.764038 641.874634,834.274109 
	C640.230408,829.650452 637.847473,825.589050 638.619873,820.406128 
z"/>
<path fill="#D2EDF5" opacity="1.000000" stroke="none" 
	d="
M150.963531,395.408264 
	C153.503723,394.994476 154.684723,397.100494 156.043533,398.641968 
	C165.301727,409.144836 177.286713,412.894043 190.805328,412.999176 
	C191.637939,413.005676 192.470657,412.999023 193.303314,412.998474 
	C207.199890,412.989319 207.147736,413.003967 210.926132,426.449738 
	C215.363251,442.239746 219.966949,457.983032 224.380356,473.779572 
	C229.098495,490.666840 233.581879,507.620026 238.347610,524.493591 
	C242.891525,540.581909 247.818115,556.562744 252.302124,572.667114 
	C257.676849,591.970642 262.733337,611.362549 267.979126,630.702209 
	C272.580231,647.665100 276.887543,664.723145 282.974091,681.238037 
	C285.993164,689.429810 290.428284,696.737183 297.550049,702.164246 
	C298.953644,703.233826 300.495758,704.403687 300.958008,706.696472 
	C293.006256,704.525757 288.829468,697.971985 285.089417,691.347778 
	C280.853363,683.844910 277.898102,675.830322 275.657715,667.359558 
	C273.880432,660.639587 271.834503,653.891968 269.740143,647.228821 
	C267.699554,640.736816 266.901947,633.962097 264.732910,627.664062 
	C262.876495,622.273804 261.209106,616.711792 259.516968,611.324768 
	C257.248627,604.103394 255.006760,596.640320 254.103531,589.025879 
	C253.614853,584.906189 251.580719,581.433472 250.603836,577.669189 
	C249.285751,572.590088 247.506271,567.697815 245.984955,562.709106 
	C244.210098,556.888916 243.291885,550.881836 241.348160,545.041809 
	C239.580933,539.732056 238.876007,533.864624 236.886154,528.555908 
	C234.284866,521.615784 233.003281,514.356445 230.907700,507.305145 
	C229.779572,503.509216 228.908966,499.446320 227.709167,495.770691 
	C225.087540,487.739075 223.536758,479.446198 220.923416,471.430237 
	C219.294510,466.433838 218.482361,461.050201 216.723541,456.195770 
	C214.777466,450.824463 213.977600,445.081787 211.391266,439.973724 
	C210.374832,437.966278 211.977997,435.626373 210.129333,433.467651 
	C209.036209,431.346710 209.782562,429.427490 209.166946,427.323425 
	C206.753708,425.841766 206.859497,422.683197 206.658066,421.534607 
	C205.404190,414.384644 200.591507,414.879883 195.572098,414.977417 
	C191.760849,415.051514 187.922729,415.271393 184.138687,414.942139 
	C170.811203,413.782440 159.780258,408.065216 151.263962,397.683746 
	C150.916672,397.260345 151.072464,396.424255 150.963531,395.408264 
z"/>
<path fill="#D9EFF6" opacity="1.000000" stroke="none" 
	d="
M767.406250,707.032349 
	C766.893311,704.878967 768.577087,703.786865 769.908569,702.639343 
	C779.882080,694.043884 784.962830,682.634460 788.721985,670.417542 
	C795.926270,647.004272 803.236328,623.623535 810.392212,600.195618 
	C816.731506,579.441284 822.790588,558.600891 829.212891,537.872620 
	C835.830566,516.514160 842.767517,495.254852 849.503052,473.932617 
	C852.145020,465.569092 855.125977,457.231567 854.953857,448.294586 
	C854.684753,434.327423 850.206116,421.980194 840.341614,411.821136 
	C839.426270,410.878448 838.288696,410.078491 838.053650,408.282471 
	C842.643372,409.133514 844.588379,413.279236 846.937683,416.628967 
	C853.004395,425.278961 857.856079,434.423218 857.079651,445.651276 
	C856.575195,452.945343 858.090271,460.603149 854.876770,467.395233 
	C850.350403,476.962311 849.024841,487.553436 844.541748,497.115662 
	C843.309448,499.744141 842.695007,502.966614 842.217407,505.819946 
	C841.057251,512.751221 837.533142,518.834717 836.094421,525.573608 
	C834.303284,533.963318 831.046143,541.923523 828.622742,550.103821 
	C826.756958,556.402100 825.420959,562.990479 822.677979,569.190125 
	C820.501526,574.109070 820.112976,579.960876 817.954468,585.081604 
	C815.044983,591.984192 813.716797,599.361145 811.508667,606.459900 
	C809.346741,613.409973 806.263733,620.026367 804.779663,627.301086 
	C802.567078,638.146851 799.592590,648.962158 795.617859,659.280151 
	C792.905762,666.320435 791.793518,673.855164 788.762878,680.568848 
	C784.229553,690.611267 777.619568,699.531311 769.245361,706.930359 
	C768.958313,707.184021 768.274841,706.989075 767.406250,707.032349 
z"/>
<path fill="#D2ECF5" opacity="1.000000" stroke="none" 
	d="
M686.343506,184.365372 
	C678.716675,178.248459 669.972229,178.314194 661.283691,178.499344 
	C659.353271,178.540466 657.437500,179.326569 655.226135,178.243607 
	C658.883362,173.995209 663.682922,175.861664 667.895264,176.620407 
	C671.248718,177.224426 674.750977,177.292831 677.914612,178.170883 
	C686.320801,180.504013 694.805420,179.690979 703.270996,180.133820 
	C705.649658,180.258255 708.883789,181.369415 710.078125,183.139496 
	C712.473511,186.689728 716.324463,188.161758 719.417542,190.251587 
	C723.622742,193.092896 727.351685,196.542374 731.657654,199.261139 
	C740.316284,204.728149 748.658630,210.701477 757.065002,216.561264 
	C768.662720,224.645630 780.242798,232.756744 791.747498,240.972580 
	C800.782837,247.425018 810.294189,253.308716 818.421631,260.899628 
	C824.052307,266.158630 826.824097,272.993530 827.078369,280.953186 
	C827.377075,290.305511 826.419678,298.962280 820.228821,306.694977 
	C816.750793,311.039215 811.711731,312.717407 807.745789,316.077301 
	C807.418274,316.354767 807.251709,316.822266 807.033813,317.585327 
	C804.839966,318.132050 802.732361,317.951752 801.072388,315.758514 
	C801.439453,313.611694 803.134338,313.428497 804.475830,313.040527 
	C823.446045,307.554169 831.229309,277.926361 814.035706,262.409027 
	C807.463867,256.477966 799.857361,251.895233 792.703918,246.735367 
	C765.954468,227.440720 738.546631,209.074402 711.843079,189.713715 
	C704.728638,184.555573 697.436340,181.350067 688.596802,184.742615 
	C687.973816,184.981720 687.277527,184.792191 686.343506,184.365372 
z"/>
<path fill="#D2EDF5" opacity="1.000000" stroke="none" 
	d="
M301.085022,707.385742 
	C308.284882,708.161926 308.571594,709.048828 304.790680,714.871094 
	C290.618774,736.694275 295.037537,761.874817 316.168915,777.921204 
	C319.442169,780.406860 319.677856,781.972351 317.919708,785.395142 
	C309.912720,800.983337 309.427216,816.784241 317.695740,832.823608 
	C319.020752,833.913696 319.563934,835.132874 320.172028,836.305420 
	C321.420197,838.712158 323.048065,839.952576 325.705078,838.161194 
	C328.653229,836.173523 332.218018,836.725037 335.330444,836.641418 
	C339.267365,836.535645 342.783386,835.616638 346.729919,834.378052 
	C350.748718,835.981873 352.020844,839.343384 353.048523,843.057800 
	C351.126770,844.604553 348.860168,844.007202 347.218231,844.812561 
	C344.185394,846.300110 340.552673,842.893738 337.696198,846.651978 
	C336.259399,848.542236 332.956604,846.534790 330.288208,847.659058 
	C318.830444,845.346802 314.025391,835.848755 310.980103,826.243530 
	C309.081299,820.254639 308.534271,814.127441 309.042297,807.937927 
	C309.696869,799.963257 311.220856,792.060242 314.847992,784.927979 
	C316.190125,782.288940 315.783752,781.265869 314.080292,779.559692 
	C309.592621,775.064880 304.434326,771.317200 301.025299,765.654358 
	C294.882904,755.451050 292.303833,744.473999 294.214661,732.936646 
	C295.195068,727.016907 297.947296,721.250671 301.402008,716.033203 
	C303.151245,713.391479 304.466888,710.424683 301.085022,707.385742 
z"/>
<path fill="#D9EFF6" opacity="1.000000" stroke="none" 
	d="
M717.713745,840.042114 
	C718.984375,837.490845 720.127869,835.296265 721.546204,832.894653 
	C728.115356,833.315613 734.070190,836.547302 740.611389,835.200623 
	C742.406433,834.830994 744.098145,834.219360 745.862183,835.384644 
	C747.500610,836.466980 748.399597,835.438721 749.548096,834.184998 
	C754.254517,829.047180 755.168762,822.452576 755.823425,816.147461 
	C756.951538,805.282166 755.597412,794.541016 750.271667,784.722717 
	C748.614868,781.668091 750.032166,780.536987 752.263733,778.758179 
	C772.055664,762.982178 777.333984,739.900574 767.567566,719.219116 
	C766.513306,716.986694 764.948364,714.986755 763.547058,712.928894 
	C761.126892,709.375000 762.009827,707.414246 766.676758,707.018677 
	C763.642029,712.903503 769.392273,716.366333 770.851257,720.920410 
	C771.713928,723.613220 774.034973,725.988892 773.912842,728.930054 
	C773.635742,735.600098 775.446472,742.077087 774.348572,748.968628 
	C773.502380,754.280457 771.462036,758.617371 768.998352,762.951050 
	C765.364380,769.343201 760.686462,774.922668 755.001160,779.707703 
	C753.490479,780.979187 752.842041,783.142395 753.838501,785.750000 
	C755.607239,790.379028 756.550903,795.266235 757.419983,800.218323 
	C758.174255,804.516602 759.536865,808.845886 758.868347,813.088928 
	C757.208740,823.622253 756.492981,834.717957 746.491577,842.024902 
	C745.494080,842.511475 744.946289,843.063416 744.231873,843.859619 
	C744.051758,844.089233 744.008972,844.014465 744.047241,844.034241 
	C743.585144,844.395630 742.986877,844.469666 742.231201,844.876892 
	C742.031494,845.094360 742.008423,845.019775 742.043762,845.036377 
	C740.377686,846.005371 738.858948,845.073303 737.322876,844.552612 
	C734.593628,843.627319 731.962769,843.384338 729.044678,844.146362 
	C724.591003,845.309509 720.505981,844.394348 717.713745,840.042114 
z"/>
<path fill="#D2ECF5" opacity="1.000000" stroke="none" 
	d="
M619.606445,197.981140 
	C618.061035,203.782852 614.448303,208.748260 611.619812,214.105713 
	C610.677734,215.890106 608.230896,214.971161 606.477600,214.972900 
	C569.023499,215.010193 531.569336,214.984802 494.115143,215.001648 
	C482.497528,215.006882 471.396088,217.109604 461.311859,223.276794 
	C459.916016,224.130432 458.472778,225.061783 456.318481,224.982269 
	C457.648865,221.304672 461.242767,220.138504 464.553528,218.865341 
	C470.824768,216.453690 477.396484,215.126190 483.927551,213.572372 
	C494.194611,211.129684 504.251587,212.232300 514.355408,212.118881 
	C544.008667,211.786026 573.670349,211.815048 603.323303,212.164581 
	C609.102417,212.232697 611.509766,209.218628 614.024780,205.209793 
	C615.596619,202.704285 616.737305,199.854034 619.606445,197.981140 
z"/>
<path fill="#CDECF5" opacity="1.000000" stroke="none" 
	d="
M454.763641,829.250366 
	C455.316101,828.534729 455.625763,828.062256 455.955688,827.293213 
	C456.015533,826.403748 456.204681,825.867676 456.787231,825.199219 
	C460.609680,815.829773 458.456238,806.253967 459.007996,796.395264 
	C461.283203,796.728271 461.018066,798.618042 461.011841,800.440979 
	C460.989227,807.075317 461.133636,813.713135 460.963104,820.343140 
	C460.802307,826.595520 458.356537,832.223816 454.460266,836.904541 
	C452.017426,839.839233 450.570862,844.241821 445.487244,844.894531 
	C438.719543,843.580200 432.258942,845.329102 425.805267,844.941406 
	C423.543579,844.805542 421.129425,845.454651 419.528320,842.621277 
	C419.599731,838.915405 421.442230,836.561523 424.336548,834.508057 
	C428.008789,834.738586 431.318878,834.503662 434.480652,833.494934 
	C436.790375,832.758057 438.525940,832.520142 440.819916,834.171753 
	C443.536804,836.127686 451.616272,832.982849 454.763641,829.250366 
z"/>
<path fill="#CDECF5" opacity="1.000000" stroke="none" 
	d="
M458.890808,792.607056 
	C456.238281,792.336731 456.083221,789.881836 456.403076,788.241028 
	C456.807739,786.164978 459.202179,787.052063 460.729187,787.050720 
	C510.021149,787.007751 559.313110,787.008423 608.605042,787.058167 
	C609.939331,787.059509 611.854553,786.157593 612.494202,788.095642 
	C612.760498,788.902344 612.586914,790.591003 610.437622,790.167114 
	C606.019958,785.784302 600.156250,787.161255 596.311584,788.479919 
	C590.974731,790.310425 585.957825,789.423889 580.374817,789.912109 
	C573.580627,789.081543 567.230713,789.638123 560.486267,789.684326 
	C557.340027,789.890991 554.598938,789.944580 551.408203,789.917175 
	C544.929688,789.064941 538.878174,789.648987 532.433716,789.684448 
	C524.351929,791.150269 517.184814,786.625671 509.450562,787.932190 
	C506.635651,788.407654 503.649536,787.824036 500.463745,789.059326 
	C494.352264,789.995667 488.627197,789.199585 482.505585,789.683838 
	C475.440613,791.504211 469.267914,788.321655 462.813538,787.914429 
	C459.180389,787.685181 458.638092,789.289734 458.890808,792.607056 
z"/>
<path fill="#D2ECF5" opacity="1.000000" stroke="none" 
	d="
M380.613037,260.984436 
	C380.978271,263.498932 378.797455,264.548645 377.378235,266.077606 
	C368.793121,275.326508 363.267212,286.002106 361.956451,298.681305 
	C361.200439,305.994232 361.199463,305.859863 354.060669,306.030548 
	C343.003784,306.294891 331.839996,304.790314 320.981781,308.443207 
	C314.337006,310.678558 307.969727,313.253632 302.548096,317.844696 
	C301.446930,318.777161 299.959381,319.253357 298.290161,319.951294 
	C300.010803,315.291168 304.531494,313.408142 308.500458,311.058655 
	C321.339417,303.458618 335.582062,303.642303 349.836609,303.972992 
	C355.841034,304.112305 359.542358,301.857880 359.729370,296.024261 
	C359.968506,288.562195 362.821228,282.122284 366.252380,276.184814 
	C369.652557,270.300964 373.736725,264.353577 380.613037,260.984436 
z"/>
<path fill="#C0E4F3" opacity="1.000000" stroke="none" 
	d="
M644.640015,837.612244 
	C646.097168,839.052673 647.236145,840.626160 648.569946,842.486572 
	C644.932068,845.789307 640.370972,846.282837 635.375488,846.717224 
	C632.374390,846.012268 629.575012,846.344666 626.919495,845.893005 
	C620.416016,844.786682 615.378540,841.214966 612.106079,835.438171 
	C605.955139,824.580200 606.692444,812.682190 607.118652,800.856079 
	C607.129333,800.559143 607.746521,800.284119 608.517456,799.942261 
	C609.151062,808.822754 608.046143,817.879395 611.672363,826.788025 
	C613.968018,828.606995 614.785767,830.944275 616.016418,833.432129 
	C618.469238,839.174377 623.417358,838.629883 627.929810,838.845276 
	C633.423340,839.107544 638.810791,837.445801 644.640015,837.612244 
z"/>
<path fill="#D2ECF5" opacity="1.000000" stroke="none" 
	d="
M455.595184,224.968002 
	C456.027863,226.885315 454.687317,227.884338 453.299683,228.832504 
	C447.918457,232.509399 444.386810,237.695618 442.074005,243.599854 
	C440.770142,246.928299 438.994568,248.127625 435.456360,248.079437 
	C424.240143,247.926636 413.031311,247.675400 402.030823,250.904587 
	C394.595184,253.087341 388.413879,257.519562 381.313538,260.964630 
	C380.933807,258.736694 382.980865,257.987885 384.282562,257.055389 
	C390.573578,252.548798 397.888458,250.379227 405.125427,247.797958 
	C414.079163,244.604355 423.095947,245.222305 432.175079,244.993423 
	C436.235840,244.891068 438.895508,242.461349 440.971558,239.365189 
	C444.575531,233.990402 448.613251,229.032593 453.754639,225.055771 
	C454.070221,224.811630 454.726624,225.008102 455.595184,224.968002 
z"/>
<path fill="#A2D9EF" opacity="1.000000" stroke="none" 
	d="
M419.568329,841.808228 
	C420.546387,843.156677 421.522705,844.223633 422.984985,843.903564 
	C428.697754,842.653320 434.654449,844.715698 440.236206,842.706543 
	C442.665161,841.832214 443.521393,843.146057 444.861633,844.856812 
	C441.204590,848.413513 436.622009,850.353821 431.485840,851.015015 
	C430.996063,851.078125 430.486755,851.066956 429.993896,851.017212 
	C420.816650,850.090088 412.059418,851.491638 403.464355,855.884277 
	C402.429108,856.540771 401.736267,856.525024 400.887329,855.716064 
	C400.833374,854.696472 401.086517,854.002075 401.687927,853.713745 
	C408.142456,850.620483 413.477753,845.898071 419.568329,841.808228 
z"/>
<path fill="#A7DAF0" opacity="1.000000" stroke="none" 
	d="
M330.396606,847.941895 
	C330.185822,846.797424 330.757538,846.133301 331.930115,846.036804 
	C338.761932,845.475037 345.232269,842.490967 352.607788,843.001343 
	C353.311584,842.866638 353.720795,842.726318 353.930664,842.908569 
	C359.796143,848.002014 366.514648,851.765320 373.376160,855.768677 
	C373.340027,856.677246 373.054108,857.070496 372.217529,857.191101 
	C368.390808,858.196533 365.513092,855.795166 362.768280,854.755371 
	C356.859436,852.516907 350.494843,853.064880 344.778320,850.901306 
	C340.203064,849.169678 335.377167,849.385315 330.396606,847.941895 
z"/>
<path fill="#D2EDF5" opacity="1.000000" stroke="none" 
	d="
M164.397644,332.758606 
	C161.026871,336.425201 155.881683,337.900208 152.149933,342.036926 
	C140.134491,355.356384 140.633438,376.082855 148.596298,388.950806 
	C149.647736,390.649933 150.969131,392.172943 150.980469,394.687134 
	C146.190781,393.494415 145.140594,388.654938 143.262222,385.101349 
	C138.268951,375.654877 138.865463,365.008759 141.287796,355.235321 
	C143.834045,344.961914 151.498444,337.712128 161.530945,332.987976 
	C162.455765,332.505371 163.128082,332.514679 164.397644,332.758606 
z"/>
<path fill="#D2ECF5" opacity="1.000000" stroke="none" 
	d="
M827.410522,384.037323 
	C827.173889,382.774597 827.004517,381.327362 827.518433,380.188446 
	C832.322327,369.541962 831.653564,358.684784 829.134583,347.676025 
	C827.497925,340.522766 823.890991,334.568451 818.886108,329.307098 
	C816.857727,327.174744 814.176636,325.584045 813.045166,322.299927 
	C820.223999,323.923096 822.971497,330.547302 826.767761,335.755676 
	C833.140991,344.499420 833.712463,355.097931 833.886414,365.447113 
	C833.998718,372.133118 832.199768,378.593933 827.410522,384.037323 
z"/>
<path fill="#D2ECF5" opacity="1.000000" stroke="none" 
	d="
M295.589478,321.964844 
	C296.260254,323.767059 295.264160,324.989807 294.196136,326.356842 
	C284.976898,338.156555 280.773132,351.640869 281.012909,366.553162 
	C281.096649,371.759766 282.791626,376.650360 284.371460,381.513397 
	C285.322815,384.441864 284.297882,385.165192 281.276123,384.969910 
	C280.406921,375.509430 277.443054,366.136566 279.107605,356.681854 
	C280.714996,347.551910 282.269653,338.315125 288.483337,330.635559 
	C290.762390,327.818817 291.783142,323.978546 295.589478,321.964844 
z"/>
<path fill="#C1E9F5" opacity="1.000000" stroke="none" 
	d="
M717.549194,839.860657 
	C721.401855,843.093140 725.168213,844.194153 730.159119,842.348389 
	C734.006592,840.925537 737.797485,843.152222 741.703430,844.991577 
	C734.442810,849.710815 726.203613,849.812561 717.354370,848.090820 
	C715.782410,846.828613 714.101929,847.080688 712.608643,846.074524 
	C714.034302,843.883972 715.645874,841.959900 717.549194,839.860657 
z"/>
<path fill="#9BD1EB" opacity="1.000000" stroke="none" 
	d="
M635.429138,846.965454 
	C639.350891,845.759460 643.237915,843.169983 648.305237,842.830200 
	C655.242615,849.766907 663.017029,854.578796 672.669556,856.949341 
	C673.163940,857.230774 673.328857,857.347839 673.246094,857.640015 
	C669.657532,858.462708 666.419800,857.969055 663.619324,856.147766 
	C656.322876,851.402893 647.331726,851.230347 639.792969,847.138062 
	C638.762390,846.578674 637.176514,847.042175 635.429138,846.965454 
z"/>
<path fill="#98D2EA" opacity="1.000000" stroke="none" 
	d="
M712.116821,845.901001 
	C713.723022,846.911377 716.475342,843.297729 716.939087,847.550171 
	C710.199402,851.210632 703.473450,854.568481 696.418762,857.255981 
	C692.850464,858.615356 689.358459,857.669678 685.384155,857.943970 
	C690.152100,856.276306 695.710510,855.681458 700.761658,853.240173 
	C704.786987,851.294739 708.474365,848.938477 712.116821,845.901001 
z"/>
<path fill="#96CDEE" opacity="1.000000" stroke="none" 
	d="
M372.073730,857.428711 
	C372.160706,856.842224 372.463409,856.627747 372.895142,856.162720 
	C373.508881,855.440247 374.098022,854.997620 374.750366,855.062073 
	C383.291351,855.906860 391.801788,855.421753 400.658112,854.833740 
	C401.512268,855.408936 402.014648,855.705078 402.819794,856.028931 
	C401.454437,857.374634 399.528290,857.808105 397.437103,858.055969 
	C394.216614,858.437683 390.631836,856.424255 387.753754,859.876770 
	C387.067047,860.700562 383.906647,860.736206 383.047028,859.915833 
	C379.770538,856.788696 375.817810,858.630615 372.073730,857.428711 
z"/>
<path fill="#D9EFF6" opacity="1.000000" stroke="none" 
	d="
M827.045166,400.577026 
	C824.543152,401.119049 822.364380,399.842651 820.040588,399.129700 
	C818.669312,398.708954 816.684448,398.619141 816.486755,397.032745 
	C816.260620,395.218628 817.322998,393.596588 819.740845,393.057343 
	C819.280579,396.891327 821.913269,398.062592 824.775085,398.977264 
	C825.617798,399.246582 826.868774,398.629395 827.045166,400.577026 
z"/>
<path fill="#D2ECF5" opacity="1.000000" stroke="none" 
	d="
M640.660156,182.113785 
	C638.176147,185.990707 633.700989,187.102798 629.325378,188.990814 
	C631.557129,184.756760 635.641724,182.945419 640.660156,182.113785 
z"/>
<path fill="#D2ECF5" opacity="1.000000" stroke="none" 
	d="
M652.590149,178.102097 
	C650.246643,181.221420 646.342041,181.213272 642.323669,181.991669 
	C644.452820,178.397858 648.147339,177.800934 652.590149,178.102097 
z"/>
<path fill="#D2EDF5" opacity="1.000000" stroke="none" 
	d="
M177.795685,332.072876 
	C174.088852,333.911957 169.937012,332.541382 165.455917,333.004852 
	C164.995346,332.995117 164.999893,333.000000 165.000885,333.000977 
	C164.839874,332.864685 164.677856,332.727417 164.747314,332.371338 
	C168.166962,329.936157 171.770813,331.421753 175.609436,331.082550 
	C176.227051,331.294678 176.396790,331.433411 176.834976,331.762085 
	C177.103439,331.951996 177.573593,331.993134 177.795685,332.072876 
z"/>
<path fill="#FFFFFF" opacity="1.000000" stroke="none" 
	d="
M560.537109,789.913086 
	C566.447449,788.176819 572.888062,789.123291 579.607910,789.564270 
	C573.603943,789.888367 567.298523,789.938599 560.537109,789.913086 
z"/>
<path fill="#DBFFFF" opacity="1.000000" stroke="none" 
	d="
M532.490234,789.909912 
	C538.083740,788.120972 544.215942,789.111572 550.641968,789.574707 
	C544.956177,789.885132 538.953796,789.934082 532.490234,789.909912 
z"/>
<path fill="#FFFFFF" opacity="1.000000" stroke="none" 
	d="
M482.536530,789.913086 
	C487.681793,787.994202 493.434265,789.441589 499.568787,789.079224 
	C494.440765,791.069275 488.663086,789.499756 482.536530,789.913086 
z"/>
<path fill="#D9EFF6" opacity="1.000000" stroke="none" 
	d="
M838.032227,407.598053 
	C834.948853,408.253143 833.376953,406.261566 832.012634,403.552856 
	C834.944763,403.099060 835.991150,405.886536 838.032227,407.598053 
z"/>
<path fill="#D2ECF5" opacity="1.000000" stroke="none" 
	d="
M626.590820,190.970032 
	C626.685669,193.609131 624.891357,194.971680 622.296753,195.959290 
	C622.574280,193.634338 623.385681,191.452805 626.590820,190.970032 
z"/>
<path fill="#D2ECF5" opacity="1.000000" stroke="none" 
	d="
M824.359253,388.993805 
	C823.886536,387.346954 824.081055,385.748169 826.450684,385.024139 
	C827.574158,387.074890 825.450134,387.601227 824.359253,388.993805 
z"/>
<path fill="#98D2EA" opacity="1.000000" stroke="none" 
	d="
M678.853149,858.255859 
	C679.983948,857.903870 681.230591,857.815125 682.766724,857.838745 
	C683.200684,859.912903 681.730103,859.328186 680.305664,859.274902 
	C679.594849,858.910583 679.281921,858.714783 678.853149,858.255859 
z"/>
<path fill="#C1E9F5" opacity="1.000000" stroke="none" 
	d="
M680.086426,859.425293 
	C680.804382,858.898804 681.701050,858.691162 682.826904,858.217346 
	C683.512817,857.875000 683.969360,857.798828 684.748474,857.859436 
	C684.179443,860.532288 682.251465,860.218689 680.086426,859.425293 
z"/>
<path fill="#D2ECF5" opacity="1.000000" stroke="none" 
	d="
M810.030701,319.590515 
	C808.877625,319.973053 807.600220,320.189178 807.067017,318.296204 
	C808.008118,318.393158 809.728821,317.110687 810.030701,319.590515 
z"/>
<path fill="#D9EFF6" opacity="1.000000" stroke="none" 
	d="
M831.039185,402.593262 
	C829.963745,402.954956 828.732239,403.233124 828.042114,401.530579 
	C829.072754,401.243469 830.573608,400.113068 831.039185,402.593262 
z"/>
<path fill="#FCFDFE" opacity="1.000000" stroke="none" 
	d="
M208.939636,427.443787 
	C210.807800,428.456818 209.708847,430.510406 209.977997,432.690460 
	C208.052277,431.650818 209.417664,429.584442 208.939636,427.443787 
z"/>
<path fill="#98D2EA" opacity="1.000000" stroke="none" 
	d="
M673.380005,857.870850 
	C672.998474,857.815186 672.998596,857.464478 672.998779,857.289124 
	C674.340820,857.232483 675.682678,857.351257 677.306335,857.632812 
	C676.312622,857.839233 675.037109,857.882874 673.380005,857.870850 
z"/>
<path fill="#D2ECF5" opacity="1.000000" stroke="none" 
	d="
M812.947815,321.648956 
	C811.856567,321.991547 810.593689,322.180145 810.066528,320.292480 
	C811.279541,319.778778 812.091797,320.500000 812.947815,321.648956 
z"/>
<path fill="#D2ECF5" opacity="1.000000" stroke="none" 
	d="
M628.618652,188.975922 
	C628.968994,189.917862 628.706848,190.710114 627.277588,190.950409 
	C627.054077,190.094986 626.731995,188.928131 628.618652,188.975922 
z"/>
<path fill="#D2ECF5" opacity="1.000000" stroke="none" 
	d="
M621.613892,195.973618 
	C621.964722,196.908859 621.700806,197.698959 620.289062,197.958435 
	C620.073730,197.113678 619.680969,195.911819 621.613892,195.973618 
z"/>
<path fill="#D2ECF5" opacity="1.000000" stroke="none" 
	d="
M297.608215,319.962219 
	C297.952484,320.896271 297.705048,321.700378 296.268677,321.943665 
	C296.057617,321.096375 295.735687,319.928864 297.608215,319.962219 
z"/>
<path fill="#C1E9F5" opacity="1.000000" stroke="none" 
	d="
M744.403687,844.050537 
	C744.071167,843.114197 744.332397,842.309143 745.785034,842.075684 
	C745.916016,842.874939 746.256958,844.084106 744.403687,844.050537 
z"/>
<path fill="#FCFDFE" opacity="1.000000" stroke="none" 
	d="
M164.624359,332.080017 
	C164.978775,332.152527 164.997864,332.576965 164.999878,332.789459 
	C164.224930,332.999695 163.447998,332.997437 162.282562,332.981812 
	C162.287064,331.661713 163.374649,332.072327 164.624359,332.080017 
z"/>
<path fill="#C1E9F5" opacity="1.000000" stroke="none" 
	d="
M742.349182,845.052063 
	C742.508362,844.753357 742.985229,844.412415 743.773804,844.062744 
	C743.902405,844.802612 743.358765,845.016235 742.349182,845.052063 
z"/>
<path fill="#FCFDFE" opacity="1.000000" stroke="none" 
	d="
M177.028503,331.699829 
	C176.802383,331.878174 176.531784,331.743256 176.174500,331.351593 
	C176.356064,331.253204 176.654800,331.350464 177.028503,331.699829 
z"/>
<path fill="#0392D4" opacity="1.000000" stroke="none" 
	d="
M372.370178,656.262939 
	C359.255951,609.119141 346.507935,562.292786 333.658203,515.494385 
	C328.907562,498.192596 323.917755,480.956482 319.073334,463.304993 
	C317.509064,453.970154 317.744995,453.674530 326.718292,453.523132 
	C328.696747,453.489746 330.672791,453.461273 333.060730,452.907471 
	C343.207611,452.408691 352.913422,451.687500 363.047241,453.450806 
	C365.854034,453.205109 368.187531,453.358154 370.516663,453.358002 
	C487.594696,453.349548 604.672729,453.350677 721.750793,453.351501 
	C724.915283,453.351501 728.079712,453.362091 731.717712,453.096375 
	C746.496704,452.903442 760.785950,453.851196 775.087769,453.466553 
	C776.752930,453.421783 778.422729,453.411346 780.086487,453.505493 
	C785.524475,453.813110 786.670105,455.182556 785.267029,460.421570 
	C782.809937,469.595917 779.873901,478.634308 777.170532,487.739105 
	C765.123962,528.311951 752.574585,568.733215 740.481628,609.292725 
	C736.815979,621.587280 733.363831,633.948547 729.387817,646.150635 
	C726.187073,655.973450 724.143127,657.531982 714.025208,657.533020 
	C602.700317,657.544800 491.375366,657.542786 380.050446,657.526123 
	C377.571747,657.525757 375.029114,657.826416 372.370178,656.262939 
z"/>
<path fill="#032A4A" opacity="1.000000" stroke="none" 
	d="
M371.577820,656.025757 
	C392.030487,656.010925 412.016632,656.152588 432.002808,656.152954 
	C526.120239,656.154480 620.237610,656.119019 714.355042,656.091125 
	C724.036743,656.088318 724.981445,655.537598 727.774414,646.323425 
	C740.892700,603.044861 753.932983,559.742615 766.979492,516.442383 
	C772.686646,497.501007 778.240173,478.512421 784.106567,459.620758 
	C785.297180,455.786652 784.770752,454.693390 780.635010,454.722443 
	C765.005737,454.832275 749.374329,454.647095 733.431030,454.427094 
	C733.195374,452.509552 734.566711,451.670349 735.814758,450.940155 
	C743.825439,446.253540 743.701416,432.725830 737.452576,426.750549 
	C733.071289,422.561096 727.953247,419.436920 723.045105,416.039825 
	C701.143188,400.880798 679.041992,386.010956 657.061096,370.965607 
	C651.290955,367.016083 645.688354,362.823547 639.807068,359.039551 
	C634.650513,355.721863 628.372620,357.725037 626.761841,363.124847 
	C625.844421,366.200531 626.906677,368.661102 629.136780,370.767822 
	C633.273804,374.676117 638.070740,377.706848 642.731079,380.904602 
	C664.556580,395.880524 686.111633,411.249939 708.163635,425.896332 
	C709.134155,426.540924 710.120911,427.181763 710.892395,428.067566 
	C712.818481,430.278809 712.218933,431.616089 709.420227,432.105133 
	C708.103333,432.335297 706.764771,432.292572 705.433105,432.292999 
	C687.950073,432.298615 670.467102,432.303406 652.984070,432.288177 
	C650.659729,432.286163 648.299133,432.421143 645.855469,430.958313 
	C633.871704,422.223755 621.538208,414.665955 609.877869,406.133728 
	C603.705933,401.617493 597.054993,397.819183 590.818542,393.402191 
	C579.039917,385.059906 574.841675,369.737854 580.713074,356.629852 
	C581.126526,355.706696 581.612000,354.845062 583.015137,354.499420 
	C585.513611,360.347931 589.268433,364.231110 595.776733,364.430054 
	C602.846313,364.646179 608.082825,361.251099 610.942993,354.999847 
	C615.921631,344.118469 620.410217,333.013519 625.147705,322.021057 
	C632.388672,305.219727 638.776733,288.047455 646.801147,271.589294 
	C652.163757,260.590576 661.908875,255.245865 674.027405,256.135590 
	C679.421387,256.531586 683.852112,259.209595 688.079468,262.150909 
	C703.660767,272.992126 719.122986,284.004242 734.673096,294.890533 
	C753.501343,308.071838 772.368164,321.197937 791.229126,334.332306 
	C797.541443,338.728027 802.713501,343.897461 804.290466,351.866302 
	C806.505371,363.059784 800.286194,373.853363 789.984680,376.553711 
	C785.902344,377.623840 782.425659,377.149170 778.780884,374.555389 
	C753.006836,356.213104 726.462524,338.965881 701.125671,319.999756 
	C697.926331,317.604828 694.574402,316.601837 690.901978,318.461090 
	C687.537659,320.164276 685.658081,323.121277 685.462158,326.884796 
	C685.224426,331.451965 688.188782,334.148560 691.571411,336.519714 
	C710.799622,349.998016 730.008179,363.504333 749.252808,376.959045 
	C756.486023,382.016083 763.773315,386.997040 771.079956,391.947754 
	C783.800293,400.566711 787.128784,410.108612 782.176758,425.037354 
	C788.259399,425.037354 794.177856,425.055267 800.096191,425.033936 
	C816.515015,424.974762 827.593323,441.976349 822.616760,457.112091 
	C807.749817,502.328278 794.152161,547.962708 780.152588,593.462708 
	C772.957214,616.848328 765.985840,640.302795 758.867249,663.712158 
	C753.573425,681.120667 739.569031,691.688660 721.327515,691.730957 
	C677.997681,691.831360 634.667603,691.792786 591.337585,691.793640 
	C511.010620,691.795288 430.680511,691.398193 350.358795,692.045471 
	C329.693665,692.212036 312.722870,677.886658 307.677643,659.305359 
	C284.615967,574.369995 260.882111,489.617157 237.400955,404.795624 
	C236.380341,401.108765 235.702713,397.311005 234.457901,393.705597 
	C232.179581,387.106750 227.903885,384.130188 220.900864,384.039062 
	C211.903458,383.921997 202.904221,383.952515 193.906021,383.886292 
	C189.330765,383.852631 184.881287,383.103119 181.123657,380.317657 
	C175.609497,376.230103 172.774475,370.720123 174.017838,363.818756 
	C175.273468,356.849274 179.622131,352.193695 186.356049,350.064819 
	C190.487305,348.758759 194.811600,348.233032 199.169998,348.226624 
	C207.669128,348.214142 216.194351,348.628326 224.662003,348.106598 
	C243.021317,346.975525 261.643738,358.257416 267.933075,381.435669 
	C287.500946,453.549652 307.493256,525.548462 327.311371,597.594604 
	C331.546692,612.991699 335.716919,628.406677 339.963684,643.800598 
	C342.795715,654.066345 345.628204,656.211121 356.113708,656.200256 
	C361.112946,656.195068 366.112152,656.146179 371.577820,656.025757 
z"/>
<path fill="#042B4B" opacity="1.000000" stroke="none" 
	d="
M363.417542,454.308228 
	C353.401428,454.521271 343.631226,454.395844 333.388306,454.290649 
	C330.305145,452.001831 330.447601,448.629303 329.598785,445.649536 
	C327.920624,439.758423 326.135620,433.887360 325.774475,427.389465 
	C322.631226,411.594208 317.342041,396.686646 313.449402,381.393402 
	C311.385071,373.283112 309.454926,365.250275 311.779083,356.828003 
	C315.631012,342.869263 328.203796,332.977692 342.666931,332.874603 
	C358.985352,332.758301 375.304932,332.711731 391.623413,332.777771 
	C394.549255,332.789612 395.480072,332.294464 394.397522,329.186279 
	C392.924988,324.958252 391.813049,320.587280 390.803986,316.218170 
	C386.173157,296.166809 400.552826,276.022491 421.097137,274.640991 
	C433.701874,273.793365 446.394470,274.120789 459.046173,274.188904 
	C462.526367,274.207611 463.798615,273.537994 464.079987,269.661072 
	C465.236420,253.725693 479.937225,240.693359 497.637421,239.838226 
	C506.443695,239.412781 515.284241,239.662125 524.109314,239.665619 
	C556.581787,239.678528 589.054810,239.817139 621.526123,239.635803 
	C626.390198,239.608643 626.675476,240.930573 624.879944,244.777084 
	C622.488708,249.899673 620.426025,255.175568 618.016235,260.681885 
	C615.566284,263.010651 612.783569,262.426727 610.182495,262.432037 
	C587.381836,262.478577 564.580994,262.448181 541.780212,262.464691 
	C535.144592,262.469482 534.814148,262.749817 536.296692,269.326813 
	C541.347656,291.734619 547.442322,313.879150 553.423645,336.049164 
	C561.312317,365.288788 568.422180,394.729492 576.246033,423.985291 
	C576.674927,425.588898 577.107971,427.209747 576.690002,429.302063 
	C572.212219,432.811157 558.642883,433.376404 554.606506,430.638367 
	C552.627502,429.295898 552.149475,427.150574 551.592285,425.075409 
	C547.235474,408.848419 542.707703,392.666107 538.473755,376.407715 
	C528.873169,339.541412 519.355286,302.653625 509.353912,265.893311 
	C507.819397,260.253204 507.480438,260.186920 502.372437,262.859375 
	C494.698151,266.874451 493.488983,269.684631 495.456055,278.166229 
	C496.919525,284.476654 499.030396,290.630981 499.932373,297.439087 
	C499.707611,298.277405 499.505249,298.717621 499.398987,299.448059 
	C499.654480,299.991486 499.752441,300.215240 499.965973,300.793457 
	C502.793182,312.015808 505.309875,322.939575 509.530426,333.780579 
	C510.138763,335.150208 510.278076,336.226868 510.411774,337.725098 
	C511.706543,348.938629 515.407532,359.152863 518.275696,369.540771 
	C523.143188,387.169830 527.721313,404.870117 532.272461,422.579163 
	C533.938049,429.060059 532.890625,430.273499 526.159485,430.352020 
	C522.327698,430.396729 518.495117,430.377777 514.662964,430.357849 
	C507.523102,430.320770 506.508484,429.445251 504.543701,422.680664 
	C502.554718,415.832428 501.107452,408.811371 497.964691,401.903534 
	C497.453888,401.071930 497.266174,400.552338 497.104065,399.598969 
	C495.596436,389.499573 493.141541,380.004517 490.447632,370.626465 
	C485.870514,354.692932 482.065186,338.557404 477.477234,322.639435 
	C475.056610,314.240936 473.529633,305.528168 469.268097,297.413147 
	C465.365845,295.832336 461.657654,296.494171 458.023773,296.454346 
	C449.528809,296.361206 441.003906,296.855133 432.543884,296.307831 
	C423.676788,295.734192 418.319885,303.859863 420.642822,311.811401 
	C431.338013,348.421692 442.073853,385.024994 452.274170,421.779602 
	C452.452423,422.421936 452.232361,421.617920 452.417297,422.258423 
	C454.945587,431.014282 453.969696,432.373657 445.038788,432.416565 
	C439.541565,432.442993 434.038025,432.268829 428.548553,432.464355 
	C424.142029,432.621246 421.906799,430.752045 420.760559,426.529266 
	C415.218689,406.113495 409.478210,385.751678 403.648071,365.415955 
	C400.129395,353.142639 401.352631,354.485931 389.301880,354.434753 
	C377.974121,354.386658 366.625336,354.845001 355.324188,354.299652 
	C345.453552,353.823303 338.800079,362.521027 341.703949,372.130920 
	C349.168884,396.835114 355.890167,421.775696 362.815643,446.647797 
	C363.478088,449.026825 364.487885,451.402496 363.417542,454.308228 
z"/>
<path fill="#032845" opacity="1.000000" stroke="none" 
	d="
M541.000122,719.800720 
	C600.646240,719.831543 659.792297,719.875122 718.938416,719.870117 
	C723.359192,719.869690 727.522583,720.540283 731.396057,722.794312 
	C738.831787,727.121460 742.782532,735.532349 740.831970,743.064087 
	C738.839844,750.756775 731.014160,756.916260 722.658386,756.945129 
	C696.334351,757.036133 670.009827,756.991577 643.685486,756.995056 
	C546.718567,757.007935 449.751678,757.019836 352.784760,757.027344 
	C349.623627,757.027588 346.477966,757.062195 343.344452,756.333252 
	C333.520142,754.047913 327.374298,746.349304 328.059357,737.007202 
	C328.720215,727.995483 336.368286,720.594360 346.073242,720.110107 
	C353.887756,719.720154 361.728973,719.788269 369.558411,719.786377 
	C426.538971,719.772400 483.519501,719.792236 541.000122,719.800720 
z"/>
<path fill="#052A48" opacity="1.000000" stroke="none" 
	d="
M685.829041,184.382019 
	C696.430115,180.175018 704.999084,183.042511 713.859619,189.457840 
	C745.793518,212.579041 778.202759,235.043274 810.401917,257.798828 
	C824.698547,267.902435 828.954651,284.731750 821.155640,300.129395 
	C817.068604,308.198456 810.575745,313.227295 801.330505,315.253784 
	C797.525452,315.334015 795.320801,312.801605 792.778198,311.051727 
	C760.829285,289.063965 728.995972,266.907745 696.983215,245.013641 
	C681.842041,234.658264 671.729675,235.024536 656.738098,245.566330 
	C656.374939,245.821671 655.851257,245.848541 654.570862,246.229141 
	C657.783020,238.031616 660.675720,230.349258 663.796814,222.760864 
	C667.594177,213.528442 671.581787,204.374268 675.491333,195.188049 
	C677.530884,190.395920 680.874390,186.847839 685.829041,184.382019 
z"/>
<path fill="#0591D2" opacity="1.000000" stroke="none" 
	d="
M576.899597,430.640686 
	C568.693787,400.236145 560.851318,370.174957 552.966370,340.124908 
	C546.684082,316.182709 539.916870,292.364777 534.543335,268.190277 
	C532.890564,260.754669 532.915588,260.743835 540.485840,260.755157 
	C565.959167,260.793274 591.432495,260.835480 617.358093,260.927124 
	C614.156006,272.736603 608.743774,283.804626 604.322998,295.263672 
	C598.214111,311.098694 591.855652,326.837463 585.600586,342.616058 
	C584.177490,346.205872 583.191650,349.876038 583.432556,354.162109 
	C575.777161,367.956787 579.260010,383.843750 591.857666,392.436188 
	C608.355347,403.688812 624.937866,414.817139 641.464783,426.027222 
	C642.966614,427.045898 644.328674,428.270599 645.892090,429.712524 
	C645.443420,432.757172 643.101196,432.484619 641.267212,432.499207 
	C621.658752,432.655670 602.049316,432.724091 582.440796,432.486267 
	C580.601807,432.463989 578.802734,432.090515 576.899597,430.640686 
z"/>
<path fill="#032A49" opacity="1.000000" stroke="none" 
	d="
M401.289276,854.895996 
	C392.042297,857.961609 383.008636,858.596619 373.450195,855.917236 
	C365.554535,853.236633 358.756531,849.525085 353.286377,843.153625 
	C351.298706,840.409851 349.607635,837.820374 347.645264,835.046387 
	C343.666809,832.591248 343.974670,828.636536 343.276367,824.708252 
	C343.215271,823.720703 343.158112,823.127075 342.971313,822.261658 
	C342.585693,821.626343 342.361542,821.244141 342.310059,820.541260 
	C341.750061,812.020996 342.473602,804.000977 345.691772,796.307922 
	C354.277100,775.784424 377.133698,765.459717 399.002167,772.243713 
	C420.465942,778.902161 433.288483,800.173889 429.028961,822.039551 
	C428.838928,823.015076 428.744812,824.009277 428.536682,825.416504 
	C429.121918,829.321411 427.602966,832.041809 425.101929,834.720337 
	C423.240967,837.022034 421.695862,839.131836 420.040405,841.554199 
	C414.645538,847.335693 408.778076,851.969116 401.289276,854.895996 
z"/>
<path fill="#086499" opacity="1.000000" stroke="none" 
	d="
M325.675537,427.166077 
	C328.279358,435.848572 330.577362,444.662933 332.895508,453.894043 
	C330.615082,455.736359 328.090576,454.883362 325.686096,454.918884 
	C318.214874,455.029327 318.213715,454.951752 319.334991,462.663757 
	C317.730560,457.822540 315.938019,452.795288 315.063629,447.613159 
	C313.525848,438.499329 317.710327,431.930084 325.675537,427.166077 
z"/>
<path fill="#E8F4F8" opacity="1.000000" stroke="none" 
	d="
M343.179871,824.705933 
	C344.558228,827.594788 345.843994,830.875366 347.251862,834.508911 
	C341.964294,838.410767 335.866608,838.228638 329.776794,838.135620 
	C328.971252,838.123413 328.047485,838.116394 327.377228,838.476685 
	C325.583862,839.440735 324.134888,842.181213 321.823395,840.512878 
	C319.716400,838.992004 318.223267,836.625549 317.982269,833.413330 
	C320.429565,833.404602 322.928040,830.613342 325.427551,833.253845 
	C326.191864,834.061218 326.718048,832.916626 327.310425,832.378479 
	C329.244690,830.621094 330.735748,825.746948 333.957916,831.232178 
	C334.084961,831.448425 334.791016,831.582520 334.792786,831.578003 
	C336.320709,827.823975 342.512726,830.031799 343.179871,824.705933 
z"/>
<path fill="#E7F3F7" opacity="1.000000" stroke="none" 
	d="
M615.297363,834.228882 
	C614.024109,831.902283 613.036133,829.818970 611.996826,827.392334 
	C614.256042,826.967102 616.296326,827.118347 618.448853,828.631348 
	C619.752197,829.547546 622.229858,832.797302 624.344666,828.827454 
	C624.943726,827.702942 626.124084,828.803345 627.041809,828.835144 
	C631.505859,828.989990 636.600647,830.190247 636.718872,822.986389 
	C636.732605,822.146362 637.716614,821.322205 638.474609,820.262085 
	C639.699219,824.565613 640.710571,829.094421 642.921631,833.626343 
	C639.223206,837.656128 634.938904,839.129089 629.818115,837.247681 
	C629.036560,836.960510 628.079895,836.519104 627.404968,836.898315 
	C622.718506,839.531982 619.270813,836.477966 615.297363,834.228882 
z"/>
<path fill="#EBF6FA" opacity="1.000000" stroke="none" 
	d="
M425.162872,835.062988 
	C425.896057,832.081055 427.006073,829.249939 428.291687,826.128540 
	C428.909882,826.289307 429.465942,826.674927 429.771698,827.204956 
	C430.432129,828.349792 429.329956,830.781067 431.529144,830.648926 
	C433.701263,830.518494 432.279663,828.213013 432.821930,827.181091 
	C433.746277,825.422058 435.507080,824.350159 437.461121,826.229309 
	C441.295807,829.916992 445.507660,831.663513 450.778687,829.309998 
	C451.763672,828.870178 453.041687,829.086670 454.595490,829.003784 
	C453.910614,833.409851 452.168671,836.746277 446.575562,834.882935 
	C445.755005,834.609619 444.530426,835.660767 443.459778,835.992676 
	C442.527374,836.281799 440.865814,836.844666 440.690887,836.563110 
	C437.359772,831.201782 433.458893,835.939514 429.883301,835.899475 
	C428.368622,835.882507 426.898193,836.035095 425.162872,835.062988 
z"/>
<path fill="#EBF6FA" opacity="1.000000" stroke="none" 
	d="
M456.702728,825.028442 
	C456.821472,825.553772 456.649597,826.111755 456.226868,826.833130 
	C454.893768,826.074829 455.177246,825.460815 456.702728,825.028442 
z"/>
<path fill="#E8F4F8" opacity="1.000000" stroke="none" 
	d="
M342.357178,820.553589 
	C342.608490,820.615784 342.766144,820.992371 342.882751,821.679321 
	C342.648987,821.615845 342.456238,821.241821 342.357178,820.553589 
z"/>
<path fill="#CFE9F3" opacity="1.000000" stroke="none" 
	d="
M615.048706,834.352417 
	C616.920349,834.814636 620.329041,832.059753 620.845337,836.432922 
	C620.875183,836.685791 622.620911,837.187378 623.021057,836.874268 
	C626.421387,834.212646 629.539062,835.440674 633.025208,836.865051 
	C636.546692,838.303894 638.956177,834.433228 642.590332,834.001709 
	C643.591492,834.934692 644.214355,835.875977 644.897644,837.148254 
	C637.063354,840.117981 629.109253,840.880615 620.817505,839.271545 
	C617.740845,838.674561 616.134216,837.326599 615.048706,834.352417 
z"/>
<path fill="#FBFDFE" opacity="1.000000" stroke="none" 
	d="
M576.115173,430.442383 
	C599.495911,431.024078 622.441833,430.530914 645.707153,430.285400 
	C646.612183,430.311462 647.195312,430.846436 647.779541,430.847595 
	C668.877563,430.890472 689.975647,430.883575 712.566223,430.883575 
	C709.536438,428.680634 707.637146,427.236298 705.675171,425.882843 
	C681.422485,409.152069 657.159241,392.436584 632.904846,375.708130 
	C631.534546,374.762970 630.166016,373.802399 628.886047,372.741119 
	C623.961853,368.658142 623.318237,364.443665 626.836609,359.719910 
	C630.314331,355.050720 635.404236,354.347412 640.360107,357.748352 
	C670.700928,378.569550 701.056763,399.368805 731.400940,420.185028 
	C732.909729,421.220032 734.412842,422.276825 735.824097,423.438293 
	C747.157715,432.766022 746.197083,446.276398 733.400146,454.081482 
	C730.150208,454.546021 727.182129,455.040344 724.213867,455.041046 
	C605.832520,455.069580 487.451202,455.054443 369.069885,455.032410 
	C367.410339,455.032104 365.750824,454.873016 363.631470,454.717346 
	C359.669586,438.895081 354.658051,423.558258 350.363434,408.024384 
	C346.908112,395.526123 343.371765,383.049255 340.041168,370.517761 
	C337.397552,360.571167 343.010437,353.339294 353.326080,353.259857 
	C367.645630,353.149567 381.969910,353.316528 396.283569,352.988800 
	C400.343933,352.895813 402.022125,354.053864 403.096649,358.018890 
	C409.269073,380.795563 415.798676,403.475220 422.045624,426.232117 
	C422.956970,429.552063 424.108490,431.153748 427.969330,430.925079 
	C434.772766,430.522125 441.628387,430.573547 448.440308,430.896271 
	C452.716827,431.098907 453.075653,429.584412 452.030548,425.995758 
	C444.777618,401.091400 437.639801,376.153442 430.498047,351.216827 
	C426.605865,337.626617 423.219635,323.869965 418.732758,310.480804 
	C416.532593,303.915222 422.982605,294.656708 429.761780,294.641907 
	C442.581207,294.613892 455.400787,294.636627 468.220215,294.673187 
	C468.669556,294.674469 469.117889,295.048126 469.795105,295.630737 
	C475.557098,312.531555 479.564240,329.473755 484.031982,346.289520 
	C487.095795,357.821045 490.420563,369.282959 493.398315,380.838287 
	C494.890137,386.627502 496.353699,392.423920 497.938721,398.600281 
	C497.996979,399.451294 498.033905,399.896393 498.214111,400.646484 
	C501.246552,408.006165 502.824554,415.461395 504.903107,422.757233 
	C506.951385,429.946899 506.757812,430.003021 514.189697,430.004578 
	C519.008057,430.005585 523.827026,430.055054 528.644531,429.989227 
	C533.026794,429.929382 533.652222,429.210327 532.471008,424.927734 
	C528.067505,408.962524 524.385864,392.808411 519.850952,376.879059 
	C516.182556,363.993134 512.843567,351.018036 509.347107,337.694153 
	C509.247070,336.410400 509.096741,335.531769 508.806396,334.347778 
	C505.219482,322.966431 502.249298,311.759613 499.431885,300.107697 
	C499.405121,299.711884 499.354248,299.669739 499.365479,299.638672 
	C499.140472,299.581329 498.904266,299.555084 498.918213,299.274811 
	C497.303925,291.606201 495.430267,284.193848 493.577606,276.776306 
	C491.692352,269.228241 492.415527,267.190948 499.019501,263.166138 
	C501.984558,261.359039 505.227692,260.008209 508.772186,258.236633 
	C512.845764,273.427673 516.890137,288.292358 520.815125,303.188568 
	C531.611328,344.162750 542.400085,385.139038 553.048523,426.151703 
	C553.978455,429.733490 555.571655,430.963837 559.198608,430.758057 
	C564.676514,430.447296 570.182068,430.623138 576.115173,430.442383 
z"/>
<path fill="#F7FEFE" opacity="1.000000" stroke="none" 
	d="
M454.755585,492.207184 
	C454.807343,492.778931 454.924133,492.965363 455.288696,493.150574 
	C455.996429,493.184540 456.420380,493.403564 456.716736,494.240295 
	C456.712097,494.619995 456.700928,494.866852 456.796600,494.945068 
	C458.003296,496.707886 458.638916,498.538330 459.059082,500.533966 
	C465.113556,529.291565 472.922668,557.654968 478.437134,586.532532 
	C479.696503,593.127441 483.787567,597.206909 491.568512,597.151794 
	C535.037109,596.843933 578.509094,596.997131 621.979919,597.016907 
	C625.345581,597.018433 628.670105,597.045593 631.740906,594.337891 
	C632.076050,594.037659 632.005798,594.011414 632.023682,594.044373 
	C634.519104,591.158691 634.952148,587.404114 635.927185,583.944946 
	C642.594238,560.295166 648.512756,536.442810 655.012512,512.747253 
	C656.680786,506.665192 658.036499,500.471588 660.949219,494.425476 
	C661.269226,494.180023 661.092834,494.113770 661.164856,494.174500 
	C663.563782,490.565460 667.134460,489.082733 671.605957,488.630432 
	C672.427490,488.760132 672.885620,488.804230 673.685303,488.789124 
	C676.089905,488.193756 677.879028,488.757660 679.763794,490.315613 
	C680.170166,490.662140 680.290405,490.779816 680.650269,490.976807 
	C681.397705,491.443176 682.061584,491.498077 682.550781,492.165710 
	C682.686951,492.422791 682.857361,492.366455 682.775085,492.405579 
	C684.004150,492.474213 683.723145,494.041656 684.608398,494.962952 
	C684.734314,495.257782 684.874573,495.135986 684.786865,495.166443 
	C687.625000,498.771881 687.487061,502.909515 686.433655,506.967102 
	C683.107178,519.779419 679.579834,532.539490 675.853516,545.664429 
	C675.482239,546.451965 675.302307,546.871521 675.114929,547.639282 
	C675.286377,549.517151 674.961365,550.966431 674.169067,552.670166 
	C673.676025,553.446533 673.421936,553.932190 673.179626,554.699829 
	C671.129639,566.871033 667.354187,578.326294 664.272278,589.954834 
	C662.080627,598.224670 660.750977,606.797058 655.949280,614.477783 
	C655.566101,614.605591 655.712341,614.929688 655.617920,614.779053 
	C654.818481,616.843323 652.827881,617.946655 651.028992,619.601562 
	C650.726929,619.726135 650.858948,619.871887 650.822327,619.780640 
	C650.639221,620.418579 649.998535,620.449036 649.241577,620.822510 
	C649.021667,621.018982 649.000000,621.000000 649.008545,621.011169 
	C648.314453,621.800659 647.345459,622.152588 646.200684,622.797119 
	C645.949707,622.969299 645.989807,623.004944 645.987671,622.978271 
	C645.757141,623.226624 645.503418,623.476257 644.961487,623.677612 
	C644.694946,623.651184 644.921509,623.805054 644.827576,623.705444 
	C640.483459,626.361206 635.537415,626.608948 630.872925,626.347900 
	C619.548889,625.714478 608.237000,626.060608 596.924072,626.032532 
	C559.113098,625.938660 521.301697,625.958740 483.490662,626.039978 
	C478.084595,626.051575 472.883057,625.424316 467.536255,623.036987 
	C467.201263,622.684509 467.046356,622.884949 467.142456,622.802490 
	C466.609558,622.632019 465.993835,622.496094 465.357117,621.905273 
	C465.296356,621.594177 465.069489,621.736572 465.195801,621.692017 
	C464.934723,621.738953 464.611938,621.633240 464.216797,621.088318 
	C464.079773,620.846375 464.064545,620.934814 464.107208,620.920898 
	C463.835114,620.768250 463.569885,620.563904 463.181213,620.109985 
	C462.173737,619.046631 461.332672,618.175720 460.217957,617.171387 
	C458.959045,616.275024 458.098511,615.400330 457.409302,614.000610 
	C457.327179,613.702515 457.113403,613.862976 457.235077,613.807678 
	C455.839264,613.154358 456.155121,611.482361 455.349762,610.100220 
	C455.288300,609.769348 455.152130,609.935242 455.241302,609.875549 
	C451.798065,602.800049 450.965942,595.007446 449.108032,587.534180 
	C442.806061,562.184937 437.743500,536.545288 431.479065,511.182953 
	C430.209412,506.042694 429.015045,500.802582 432.061951,495.527802 
	C432.463867,495.394409 432.383911,495.164948 432.453247,495.264709 
	C437.788300,487.443848 443.597107,486.127808 453.530212,491.007355 
	C453.704498,491.370178 453.804596,491.257233 453.731171,491.274597 
	C454.128876,491.279663 454.487488,491.474487 454.755585,492.207184 
z"/>
<path fill="#F3FCFD" opacity="1.000000" stroke="none" 
	d="
M610.690613,538.000000 
	C610.729797,551.483032 610.883118,564.467041 610.768677,577.448730 
	C610.666687,589.017212 599.854736,595.224243 589.666687,589.753235 
	C584.347107,586.896545 583.280762,581.867065 583.263123,576.579895 
	C583.180298,551.779114 583.204041,526.977722 583.293396,502.176910 
	C583.324036,493.681488 588.321655,488.557251 596.391418,488.337524 
	C604.077576,488.128204 610.304199,493.932159 610.571411,502.048218 
	C610.839783,510.196014 610.671082,518.358337 610.687988,526.514282 
	C610.695557,530.176208 610.688599,533.838074 610.690613,538.000000 
z"/>
<path fill="#F8FEFE" opacity="1.000000" stroke="none" 
	d="
M512.014282,587.987793 
	C509.229309,584.877502 507.905731,581.597839 507.911255,577.735901 
	C507.946960,552.757263 507.885956,527.778503 507.973114,502.800171 
	C508.002686,494.317963 511.917450,489.797241 519.686096,488.683807 
	C528.323730,487.445892 535.126953,493.084167 535.210999,501.950623 
	C535.365601,518.268677 535.242615,534.589172 535.305298,550.908386 
	C535.338623,559.565430 535.490723,568.222351 535.642761,576.878418 
	C535.739258,582.375183 534.555969,587.398926 529.118469,589.846191 
	C523.369263,592.433716 517.510803,592.845459 512.014282,587.987793 
z"/>
<path fill="#3391BB" opacity="1.000000" stroke="none" 
	d="
M631.679199,594.054565 
	C631.264709,597.899597 628.026855,597.563171 625.345642,597.617981 
	C616.184509,597.805420 607.018555,597.801147 597.854431,597.794617 
	C562.863342,597.769531 527.871948,597.623535 492.881256,597.727173 
	C482.344635,597.758362 479.860291,596.271729 477.459106,585.303955 
	C471.340149,557.354797 464.943024,529.466492 458.628357,501.560333 
	C458.188721,499.617462 457.511658,497.728363 456.918640,495.418762 
	C460.473755,496.719910 459.830017,500.375946 460.524689,503.283020 
	C463.835693,517.139099 466.976196,531.036194 470.128357,544.929871 
	C473.351349,559.135742 476.473206,573.364685 479.729523,587.562866 
	C481.098022,593.529846 484.245483,595.997803 490.104767,595.998657 
	C533.933716,596.004639 577.762695,595.973511 621.591431,596.051147 
	C625.029846,596.057251 628.143921,595.175598 631.679199,594.054565 
z"/>
<path fill="#3391BB" opacity="1.000000" stroke="none" 
	d="
M467.270233,623.058533 
	C473.837830,625.290405 480.759399,625.597473 487.800415,625.596252 
	C535.761414,625.587769 583.722412,625.696045 631.683411,625.762390 
	C635.878601,625.768188 639.973022,625.137817 644.334656,623.667053 
	C642.476562,627.057617 638.663025,626.883484 635.426941,626.892090 
	C583.437195,627.030457 531.446838,627.046997 479.457275,626.875549 
	C475.320435,626.861938 470.802734,626.579895 467.270233,623.058533 
z"/>
<path fill="#3391BB" opacity="1.000000" stroke="none" 
	d="
M432.089996,495.416840 
	C430.847137,499.181213 430.428772,503.132080 431.340576,507.111786 
	C438.690186,539.190186 446.090057,571.257019 453.508148,603.319702 
	C453.956177,605.256287 454.691528,607.126282 455.311829,609.421570 
	C451.207642,606.189514 451.472015,600.822754 450.331757,596.180359 
	C445.196198,575.271606 440.453156,554.265869 435.638611,533.279114 
	C433.417938,523.598877 431.334747,513.886841 429.237244,504.178864 
	C428.520996,500.863831 429.413361,497.933777 432.089996,495.416840 
z"/>
<path fill="#3391BB" opacity="1.000000" stroke="none" 
	d="
M660.908875,494.255981 
	C653.480530,518.522156 647.799438,543.442871 640.994324,568.055115 
	C639.271973,574.284180 637.722961,580.561829 635.943787,586.774109 
	C635.228577,589.271484 634.864624,592.001709 632.375977,593.975708 
	C640.746887,562.050598 649.444092,530.021606 658.184998,498.004608 
	C658.569824,496.595184 659.108459,495.134155 660.908875,494.255981 
z"/>
<path fill="#3391BB" opacity="1.000000" stroke="none" 
	d="
M655.934570,614.625488 
	C662.783752,599.540894 664.805725,582.913147 669.808838,567.180847 
	C671.009155,563.406250 671.865723,559.522278 673.035889,555.335205 
	C675.352600,558.453308 672.612793,561.405945 671.863281,564.393066 
	C668.127136,579.283997 663.986694,594.075012 659.842712,608.860352 
	C659.240112,611.010376 658.516541,613.355042 655.934570,614.625488 
z"/>
<path fill="#3391BB" opacity="1.000000" stroke="none" 
	d="
M675.963135,545.908875 
	C678.122498,533.352234 682.233459,521.101013 685.403809,508.605011 
	C686.491089,504.319214 686.801086,500.125488 684.758423,495.603210 
	C688.511292,497.269318 688.582886,501.076782 687.798767,504.286194 
	C684.499451,517.789185 680.755249,531.183594 677.142334,544.609253 
	C677.024231,545.048218 676.564636,545.395386 675.963135,545.908875 
z"/>
<path fill="#3391BB" opacity="1.000000" stroke="none" 
	d="
M453.671875,490.993378 
	C443.388611,487.309479 439.558594,487.985291 432.788940,495.189209 
	C432.785583,489.136200 438.190704,488.236298 442.252502,487.447174 
	C445.972076,486.724609 450.551544,487.059021 453.671875,490.993378 
z"/>
<path fill="#3391BB" opacity="1.000000" stroke="none" 
	d="
M671.692017,488.486206 
	C668.176758,489.647552 664.477478,490.759521 661.546021,494.093445 
	C662.617615,488.817474 666.740723,488.067963 671.692017,488.486206 
z"/>
<path fill="#3391BB" opacity="1.000000" stroke="none" 
	d="
M651.092346,619.789734 
	C652.141357,618.123413 653.555786,616.520691 655.246826,614.773193 
	C656.060425,617.842407 653.812683,618.889587 651.092346,619.789734 
z"/>
<path fill="#3391BB" opacity="1.000000" stroke="none" 
	d="
M679.979675,490.217163 
	C678.266296,490.024689 676.482666,489.504883 674.362915,488.857513 
	C676.313477,487.464813 678.347900,487.478058 679.979675,490.217163 
z"/>
<path fill="#3391BB" opacity="1.000000" stroke="none" 
	d="
M674.248840,552.830444 
	C673.710938,551.427612 674.074524,550.002502 674.920532,548.309875 
	C676.591309,549.748962 676.171692,551.292297 674.248840,552.830444 
z"/>
<path fill="#3391BB" opacity="1.000000" stroke="none" 
	d="
M457.239990,614.056030 
	C458.151886,614.609863 458.976593,615.517273 459.872803,616.731323 
	C458.304047,616.915649 457.248932,616.171814 457.239990,614.056030 
z"/>
<path fill="#3391BB" opacity="1.000000" stroke="none" 
	d="
M455.187622,610.139282 
	C455.951111,610.879333 456.613892,611.989319 457.316711,613.425842 
	C455.383118,613.523071 454.990967,612.186951 455.187622,610.139282 
z"/>
<path fill="#3391BB" opacity="1.000000" stroke="none" 
	d="
M646.307373,622.997437 
	C646.765991,622.351074 647.582214,621.732788 648.707764,621.068481 
	C648.954102,622.536621 648.021729,623.030212 646.307373,622.997437 
z"/>
<path fill="#3391BB" opacity="1.000000" stroke="none" 
	d="
M684.800964,494.898621 
	C684.058105,494.529388 683.381836,493.801025 682.614014,492.786865 
	C684.130676,492.229675 684.692993,493.161560 684.800964,494.898621 
z"/>
<path fill="#3391BB" opacity="1.000000" stroke="none" 
	d="
M465.344757,621.933899 
	C465.846771,621.795837 466.397217,621.997437 467.093140,622.459473 
	C466.536957,622.928711 465.890228,622.910522 465.344757,621.933899 
z"/>
<path fill="#3391BB" opacity="1.000000" stroke="none" 
	d="
M682.548340,492.146393 
	C682.042358,492.183350 681.568115,491.887543 680.991821,491.323944 
	C681.583374,491.018250 682.214050,491.120544 682.548340,492.146393 
z"/>
<path fill="#3391BB" opacity="1.000000" stroke="none" 
	d="
M649.338684,621.004761 
	C649.418701,620.613892 649.815674,620.208801 650.499146,619.746521 
	C650.738464,620.409241 650.333923,620.818726 649.338684,621.004761 
z"/>
<path fill="#3391BB" opacity="1.000000" stroke="none" 
	d="
M454.749512,492.213562 
	C454.466614,492.308899 454.155701,492.079834 453.751251,491.571350 
	C454.012299,491.491028 454.366882,491.690063 454.749512,492.213562 
z"/>
<path fill="#3391BB" opacity="1.000000" stroke="none" 
	d="
M456.675293,494.259583 
	C456.374817,494.350983 456.037567,494.081970 455.574890,493.508362 
	C455.845795,493.435577 456.242157,493.667358 456.675293,494.259583 
z"/>
<path fill="#3391BB" opacity="1.000000" stroke="none" 
	d="
M463.108826,620.174622 
	C463.329926,620.075195 463.645020,620.232910 464.054993,620.648804 
	C463.834198,620.748535 463.518494,620.590149 463.108826,620.174622 
z"/>
<path fill="#3391BB" opacity="1.000000" stroke="none" 
	d="
M464.181030,621.112244 
	C464.410339,620.957520 464.740875,621.068665 465.196777,621.413635 
	C464.975464,621.557678 464.628876,621.467896 464.181030,621.112244 
z"/>
<path fill="#3391BB" opacity="1.000000" stroke="none" 
	d="
M644.971497,623.687744 
	C644.946289,623.421021 645.197571,623.190918 645.717285,622.956177 
	C645.739746,623.209167 645.493896,623.466736 644.971497,623.687744 
z"/>
<path fill="#2A4054" opacity="1.000000" stroke="none" 
	d="
M509.288239,337.743774 
	C516.452271,361.189636 522.796997,385.283234 529.034119,409.406799 
	C530.531799,415.199585 532.155701,420.960480 533.780823,426.719330 
	C534.611755,429.663788 533.913147,430.997894 530.537781,430.904938 
	C523.549805,430.712494 516.552124,430.761902 509.560760,430.867737 
	C507.164642,430.904053 506.144684,430.138123 505.521179,427.685913 
	C503.308838,418.984558 500.763580,410.367828 498.350922,401.335266 
	C500.097870,401.428650 500.459259,402.949890 500.849670,404.375732 
	C502.596436,410.755615 504.339844,417.137115 505.998230,423.540344 
	C506.982880,427.342316 508.748047,429.558685 513.256653,429.173126 
	C518.208313,428.749664 523.225220,429.012787 528.211548,429.098969 
	C531.176697,429.150238 532.543335,428.411743 531.621338,425.014709 
	C524.737732,399.652466 517.973816,374.257721 511.162659,348.875763 
	C510.221008,345.366638 509.172699,341.881744 509.288239,337.743774 
z"/>
<path fill="#2A4054" opacity="1.000000" stroke="none" 
	d="
M498.199463,398.773621 
	C493.293793,382.236633 488.574585,365.481567 483.975952,348.693481 
	C479.243195,331.415863 474.628021,314.105988 469.992493,296.411743 
	C472.367676,297.360260 472.319275,299.883362 472.927399,302.049042 
	C476.630066,315.235077 480.588928,328.358917 483.889282,341.645874 
	C488.608673,360.645660 494.730560,379.285736 498.199463,398.773621 
z"/>
<path fill="#2A4054" opacity="1.000000" stroke="none" 
	d="
M499.278503,300.137512 
	C502.504639,310.897339 505.604156,322.082825 508.685028,333.655334 
	C506.167938,333.179047 506.680420,330.651306 506.292053,328.960999 
	C504.105347,319.443756 499.913696,310.428375 499.278503,300.137512 
z"/>
<path fill="#2A4054" opacity="1.000000" stroke="none" 
	d="
M498.993103,299.097076 
	C499.168335,299.020813 499.450073,299.251282 499.413391,299.429443 
	C499.033386,299.664917 498.553772,299.897644 498.993103,299.097076 
z"/>
<path fill="#F8FBFC" opacity="1.000000" stroke="none" 
	d="
M711.379028,233.606369 
	C706.042480,229.857315 700.883789,226.468781 695.983765,222.740219 
	C691.596252,219.401596 691.021179,214.530090 694.036926,209.935760 
	C696.885071,205.596573 701.346802,204.247360 706.182190,206.767792 
	C714.042297,210.864883 720.631409,216.851944 727.859619,221.894836 
	C738.100098,229.039246 748.304932,236.235641 758.461365,243.498764 
	C760.888000,245.234116 763.281250,247.118134 765.304993,249.291992 
	C768.693115,252.931351 768.949890,257.823059 766.319763,261.149658 
	C763.225037,265.063629 758.251221,266.252960 753.836243,263.290161 
	C742.502441,255.684189 731.395569,247.739655 720.208374,239.915771 
	C717.342468,237.911484 714.514648,235.852676 711.379028,233.606369 
z"/>
</svg>